# xmcd
#
# Track frame offsets: 
#        150
#        22313
#        59824
#        94948
#        132157
#        248828
#        255579
#
# Disc length: 4521 seconds
#
# Revision: 0
# Processed by: cddbd v1.5.2PL0 Copyright (c) Steve Scherf et al.
# Submitted via: ExactAudioCopy v0.95b3
#
DISCID=6511a707
DTITLE=Jimi Hendrix  - Kick Out The Jams - Disc 4 - 155  FLAC
DYEAR=1900
DGENRE=
TTITLE0=Jam
TTITLE1=AdLib
TTITLE2=Shuffle
TTITLE3=Like A Rolling Stone
TTITLE4=San Ho Zay
TTITLE5=Intros 1
TTITLE6=Slow Jam
EXTD=
EXTT0=
EXTT1=
EXTT2=
EXTT3=
EXTT4=
EXTT5=
EXTT6=
PLAYORDER=
